<svg xmlns="http://www.w3.org/2000/svg" width="20" height="20" fill="none"><path fill="#000" fill-rule="evenodd" d="M4.06 2c-.18 0-.35.02-.51.06-.23-.5-.52-.93-.85-1.27C2.13.22 1.24 0 0 0v2c.76 0 1.2.1 1.29.2.37.39.7 1.15.7 1.8l.01.14.98 6.86A3.11 3.11 0 0 0 0 13.95V15a3.14 3.14 0 0 0 2.93 3h.23a3 3 0 0 0 5.64 0h2.33a3 3 0 0 0 5.8-1 3 3 0 0 0-5.8-1H8.8a3 3 0 0 0-5.64 0h-.17c-.5-.03-.96-.49-1-1.06V14a1.1 1.1 0 0 1 1.05-1h12.02l.15-.05a2.62 2.62 0 0 0 1.65-1.55l.1-.2.34-.68a1395.04 1395.04 0 0 0 2.54-5.11c.6-1.35-.62-2.39-1.86-2.41L4.06 2Zm10.66 9H5.09a.17.17 0 0 1-.12-.14L4 4l13.83 1-1.26 2.53-.01.02-1.04 2.07-.34.67-.13.26-.04.11a.62.62 0 0 1-.3.34Zm-.77 7a1 1 0 1 0 0-2 1 1 0 0 0 0 2Zm-6.97-1a1 1 0 1 1-2 0 1 1 0 0 1 2 0Z" clip-rule="evenodd"/></svg>