<svg xmlns="http://www.w3.org/2000/svg" width="12" height="12" fill="none"><path fill="#242424" fill-rule="evenodd" d="M6 12A6 6 0 1 0 6 0a6 6 0 0 0 0 12Zm.68-2.15c.1-.1.14-.2.14-.34V5.38a.47.47 0 0 0-.14-.34.47.47 0 0 0-.35-.15h-.66a.47.47 0 0 0-.35.15c-.1.1-.14.21-.14.34v4.13c0 .13.05.25.14.34.1.1.21.15.35.15h.66c.14 0 .25-.05.35-.15Zm.18-5.98c.1-.1.14-.21.14-.34V2.49a.47.47 0 0 0-.14-.34A.47.47 0 0 0 6.5 2H5.5a.47.47 0 0 0-.35.15c-.1.1-.14.2-.14.34v1.04c0 .13.05.24.14.34.1.1.21.15.35.15H6.5c.14 0 .25-.05.35-.15Z" clip-rule="evenodd"/></svg>